inDegrees=no
num_controls=7
num_derivatives=13
num_iterations=114
num_multipliers=7
num_parameters=0
num_slacks=7
num_states=26
objective=5.436661
objective_accelerations=0.536062
objective_balance=0.119181
objective_effort=0.372379
objective_height=4.388541
objective_ligament=0.020498
solver_duration=1305.980104
status=Solve_Succeeded
success=true
DataType=double
version=3
OpenSimVersion=4.4-2022-07-23-0e9fedc
endheader
time	/jointset/ground_pelvis/pelvis_tilt/value	/jointset/ground_pelvis/pelvis_tx/value	/jointset/ground_pelvis/pelvis_ty/value	/jointset/hip_l/hip_flexion_l/value	/jointset/hip_l/hip_adduction_l/value	/jointset/hip_l/hip_rotation_l/value	/jointset/back/lumbar_extension/value	/jointset/patellofemoral_l/patellar_flexion_l/value	/jointset/knee_l/knee_flexion_l/value	/jointset/knee_l/knee_adduction_l/value	/jointset/knee_l/knee_rotation_l/value	/jointset/ankle_l/ankle_angle_l/value	/jointset/subtalar_l/subtalar_angle_l/value	/jointset/ground_pelvis/pelvis_tilt/speed	/jointset/ground_pelvis/pelvis_tx/speed	/jointset/ground_pelvis/pelvis_ty/speed	/jointset/hip_l/hip_flexion_l/speed	/jointset/hip_l/hip_adduction_l/speed	/jointset/hip_l/hip_rotation_l/speed	/jointset/back/lumbar_extension/speed	/jointset/patellofemoral_l/patellar_flexion_l/speed	/jointset/knee_l/knee_flexion_l/speed	/jointset/knee_l/knee_adduction_l/speed	/jointset/knee_l/knee_rotation_l/speed	/jointset/ankle_l/ankle_angle_l/speed	/jointset/subtalar_l/subtalar_angle_l/speed	/forceset/tau_hip_flexion_l	/forceset/tau_hip_adduction_l	/forceset/tau_hip_rotation_l	/forceset/tau_knee_flexion_l	/forceset/tau_ankle_angle_l	/forceset/tau_subtalar_angle_l	/forceset/tau_lumbar_extension	lambda_cid13_p0	lambda_cid13_p1	lambda_cid13_p2	lambda_cid13_p3	lambda_cid13_p4	lambda_cid13_p5	lambda_cid14_p0	/jointset/ground_pelvis/pelvis_tilt/accel	/jointset/ground_pelvis/pelvis_tx/accel	/jointset/ground_pelvis/pelvis_ty/accel	/jointset/hip_l/hip_flexion_l/accel	/jointset/hip_l/hip_adduction_l/accel	/jointset/hip_l/hip_rotation_l/accel	/jointset/back/lumbar_extension/accel	/jointset/patellofemoral_l/patellar_flexion_l/accel	/jointset/knee_l/knee_flexion_l/accel	/jointset/knee_l/knee_adduction_l/accel	/jointset/knee_l/knee_rotation_l/accel	/jointset/ankle_l/ankle_angle_l/accel	/jointset/subtalar_l/subtalar_angle_l/accel	gamma_cid13_p0	gamma_cid13_p1	gamma_cid13_p2	gamma_cid13_p3	gamma_cid13_p4	gamma_cid13_p5	gamma_cid14_p0
1.5	-0.3725380708304007	-0.02101998806903655	0.7857493384132194	1.11781575485597	-0.3071641046083409	-0.0371042195117992	-0.3301601687621971	0.700427860266586	0.7004278602666005	-0.1728395256947591	0.1743922522936972	0.1277038549333437	-0.02800651875320806	0.5310829912102693	0.1550642089185023	0.4129617302694886	-1.955196572971979	0.01944296970218882	-0.6290003179972968	0.5800545213982379	-1.781378667786621	-1.781378667786635	0.006637145596644288	-0.0009754118852384966	-0.4659968261039291	-0.05322583675802957	-0.2120119977007897	0.0329977022674971	-0.02139861830459991	-0.2011985189903725	0.06082624812353653	0.04295970971446551	0.2009915204303476	-18.78480237449553	-18.88233421424898	6.621791935498332	2.525253403564149	-609.9860576056038	-57.06536141544941	-27.6388895877215	0.4550824512678278	0.4232599048835088	-0.3081699421439588	-1.213728631533997	0.5769345014594854	-0.3925091783604697	1.464634911673437	-1.099649434888874	-1.099649434888823	0.02729387336955332	-0.01173963217473916	-0.3272691810077937	0.5662066881647525	3.351404469426073e-07	9.087788143546365e-07	-1.657249287810507e-06	-1.079024759348362e-07	3.766196025334554e-07	5.351050927117509e-07	3.283402717238395e-07
1.51	-0.367204706314179	-0.01944830311652126	0.7898627729405707	1.098204882654767	-0.3069418583513932	-0.04341258896971052	-0.3242876549637032	0.6825611213883508	0.682561121388386	-0.1727744427383725	0.1743826570833653	0.1230278315645188	-0.02851171710614657	0.5355201947507688	0.1592544423380927	0.4096450875560402	-1.966708901517073	0.0250182420320972	-0.632566670852443	0.5943693226077947	-1.79172255455597	-1.791722554555963	0.006354398237350209	-0.0009605747972815137	-0.4691324061420277	-0.04780177020584265	-0.2053603824430475	0.03186697426252458	-0.02128730256371983	-0.1999627591892597	0.06346802879270019	0.04236549693433416	0.1956756030117638	-17.77226683043046	-18.8913539839926	6.725801124220894	2.227181077779658	-606.4463943332507	-57.43932484418545	-28.67483874682456	0.4276119520746227	0.4141512938138905	-0.355361116008621	-1.079603415603455	0.5496843003739449	-0.3223809440788615	1.403065371570739	-0.9648348278759947	-0.9648348278726447	-0.05969823503733645	0.005825825749879086	-0.2953683003661882	0.5322801095258884	2.859554896386505e-07	1.090701946273658e-06	-1.41856037123482e-06	-4.618997859701637e-08	3.374906805994737e-07	5.852897103524933e-07	3.080693026594096e-07
1.52	-0.3618290552332296	-0.017835266583146	0.7939406511047756	1.078486963478227	-0.3066634872308123	-0.04975335847715644	-0.3182743606239112	0.6645983283364643	0.6645983283364566	-0.1727129150945351	0.174372756333127	0.1183227192182865	-0.02896232009940672	0.5395403041565978	0.1633345250904983	0.4058504576402036	-1.976605968046397	0.03066794242669552	-0.6354803279070697	0.6082106296563004	-1.800589502522044	-1.800589502522015	0.005926083099765688	-0.00103651985056995	-0.4718146215863378	-0.04230676482241943	-0.1987087671850195	0.03073624625765496	-0.02117598682357618	-0.1987269993880106	0.06610980946188028	0.04177128415431756	0.1903596855934304	-16.76538145693723	-18.90276819241389	6.834058242681714	1.9230382499739	-603.0114003513694	-57.88670218318124	-29.69421529590502	0.3716636243336901	0.4012297714465721	-0.4037673826215992	-0.8906762283799169	0.5918201143974895	-0.2619700182568289	1.369936079463227	-0.8042616742337867	-0.8042616742337578	-0.001819682288548714	-0.02989606042353226	-0.2365962622501068	0.5803944544119313	2.239616803689968e-07	1.283364575895524e-06	-1.125117283656174e-06	2.01316221513843e-08	2.953556702783704e-07	6.220997441597501e-07	2.795227662865675e-07
1.53	-0.3564153405537749	-0.01618203553163637	0.7979782237439237	1.05867834279935	-0.3063281013672036	-0.05612131315523298	-0.3121251502664608	0.646554601991681	0.6465546019916654	-0.172655305567885	0.1743625855525035	0.1135931756200327	-0.02935742087231609	0.5431290893045754	0.167287371623723	0.4015874935960658	-1.984834936005482	0.03641656450279973	-0.638007695594678	0.6215370618919567	-1.807895075769718	-1.807895075769754	0.00557676910387733	-0.00100696791743005	-0.4740150559706001	-0.03670578616623212	-0.1919241170044322	0.02950916926606433	-0.02109785635037862	-0.1975888202162376	0.06890351371169268	0.04096861923009197	0.1849103851763458	-15.71654449777409	-18.82694255601501	6.923774837780162	1.630684664595719	-599.5804318831488	-58.19320211942129	-30.69249940511965	0.3414696528060643	0.3886909516339576	-0.4490022523960145	-0.7465040024461255	0.5673981235090079	-0.2324518742259153	1.299839804221349	-0.6546459886321198	-0.6546459886417263	-0.05412328432950766	0.01813130555025636	-0.1998853952010083	0.5509069105796063	1.483584658857902e-07	1.487437921826661e-06	-7.734978893868875e-07	9.135039527352708e-08	2.500266910459503e-07	6.446992826439286e-07	2.421834396485374e-07
